HIERARCHY
ROOT ui
{
	 OFFSET 0 0 0
	 CHANNELS 3 XPosition YPosition Z Position
	 EndSite
	 {
	 OFFSET 0 -1 0
	 }
}
ROOT li
{
	 OFFSET 0 0 0
	 CHANNELS 3 XPosition YPosition Z Position
	 EndSite
	 {
	 OFFSET 0 -1 0
	 }
}
ROOT ul
{
	 OFFSET 0 0 0
	 CHANNELS 3 XPosition YPosition Z Position
	 EndSite
	 {
	 OFFSET 0 -1 0
	 }
}
ROOT ll
{
	 OFFSET 0 0 0
	 CHANNELS 3 XPosition YPosition Z Position
	 EndSite
	 {
	 OFFSET 0 -1 0
	 }
}
ROOT tt
{
	 OFFSET 0 0 0
	 CHANNELS 3 XPosition YPosition Z Position
	 EndSite
	 {
	 OFFSET 0 -1 0
	 }
}
ROOT tb
{
	 OFFSET 0 0 0
	 CHANNELS 3 XPosition YPosition Z Position
	 EndSite
	 {
	 OFFSET 0 -1 0
	 }
}
ROOT td
{
	 OFFSET 0 0 0
	 CHANNELS 3 XPosition YPosition Z Position
	 EndSite
	 {
	 OFFSET 0 -1 0
	 }
}
ROOT v
{
	 OFFSET 0 0 0
	 CHANNELS 3 XPosition YPosition Z Position
	 EndSite
	 {
	 OFFSET 0 -1 0
	 }
}
ROOT bn
{
	 OFFSET 0 0 0
	 CHANNELS 3 XPosition YPosition Z Position
	 EndSite
	 {
	 OFFSET 0 -1 0
	 }
}
MOTION
Frames: 18
Frame Time: 0.002
0.0026402719020843504	7.89093017578125E-4	0		0.5435191650390625	-2.382528564453125	0		-0.9893295288085937	0.00909241771697998	0		-0.7816513671875	-2.214418212890625	0		1.1748839111328124	-0.6866124267578125	0		3.11397705078125	-0.25067868041992186	0		4.79913525390625	-0.07086817932128907	0		5.59150244140625	0.22012225341796876	0		-0.24480535888671875	5.93099365234375	0		
-0.013405470848083497	0.011258208274841308	0		0.5178320922851563	-2.378083984375	0		-0.9854560546875	0.012567445755004883	0		-0.7423373413085937	-2.21341162109375	0		1.1806251220703126	-0.6806803588867187	0		3.09563818359375	-0.26093182373046875	0		4.79894287109375	-0.07273589324951171	0		5.5913798828125	0.2180643310546875	0		-0.210489013671875	5.9359521484375	0		
0.012447142601013183	0.00924564266204834	0		0.5211896362304688	-2.373962158203125	0		-0.983447021484375	0.02406990051269531	0		-0.7789615478515625	-2.21051513671875	0		1.183374267578125	-0.6777039794921875	0		3.10652197265625	-0.2555057373046875	0		4.79471826171875	-0.08053560638427734	0		5.58721240234375	0.2090763397216797	0		-0.07596286010742187	5.95571435546875	0		
-0.013635601043701172	0.009864708900451661	0		0.5335523071289062	-2.373932861328125	0		-0.995672607421875	0.01275096607208252	0		-0.7456351928710937	-2.216438720703125	0		1.1770340576171876	-0.6855974731445312	0		3.095280029296875	-0.26378396606445315	0		4.7946005859375	-0.08233834075927735	0		5.592064453125	0.1990301971435547	0		-0.07567071533203125	5.95605126953125	0		
0.0021676509380340577	-0.0020030179023742675	0		0.5309368896484375	-2.376701171875	0		-0.9957318725585937	0.012298342704772949	0		-0.7482154541015625	-2.218922119140625	0		1.1768192138671876	-0.6865339965820313	0		3.09024560546875	-0.2580866394042969	0		4.80040869140625	-0.09315385437011718	0		5.5912314453125	0.21212152099609374	0		-0.20666746520996093	5.93502197265625	0		
-0.00788247013092041	-0.004531711101531982	0		0.5402933349609375	-2.38659228515625	0		-0.995754638671875	0.011855934143066406	0		-0.7466869506835937	-2.217442138671875	0		1.1766480712890626	-0.6874375610351563	0		3.10688818359375	-0.2816077880859375	0		4.80345068359375	-0.08786478424072265	0		5.5912509765625	0.2102808837890625	0		-0.22339399719238281	5.9376376953125	0		
0.012279943466186523	0.006582874774932862	0		0.5189556274414062	-2.377065185546875	0		-0.9776652221679687	0.0171946964263916	0		-0.7790280151367187	-2.2105166015625	0		1.18261083984375	-0.6813818359375	0		3.117314208984375	-0.24599281311035157	0		4.80262353515625	-0.07544821166992187	0		5.59540673828125	0.21647616577148437	0		-0.18812960815429688	5.94161767578125	0		
0.022214006423950196	-0.003154697895050049	0		0.5714899291992187	-2.3834541015625	0		-0.9406150512695313	0.01629335594177246	0		-0.7413965454101562	-2.211468017578125	0		1.162586181640625	-0.6779525756835938	0		3.095035400390625	-0.2688990783691406	0		4.7945048828125	-0.08885295104980469	0		5.58730419921875	0.19992271423339844	0		-0.20306524658203126	5.93325341796875	0		
0.012418326377868652	0.005391190052032471	0		0.5052715759277344	-2.37527001953125	0		-0.9955999755859375	0.010597688674926758	0		-0.7457605590820312	-2.21686669921875	0		1.179447998046875	-0.68695751953125	0		3.0901669921875	-0.26295343017578127	0		4.79457568359375	-0.09026808166503907	0		5.5833203125	0.1904226531982422	0		-0.08379917907714844	5.9431611328125	0		
0.005457004070281982	-0.001070248007774353	0		0.5559120483398438	-2.3835791015625	0		-0.9584847412109375	0.009713091850280763	0		-0.7480238037109375	-2.219273681640625	0		1.1794552001953125	-0.687698486328125	0		3.117040283203125	-0.27935601806640625	0		4.794677734375	-0.09158587646484374	0		5.5834677734375	0.18897900390625	0		-0.06860279083251954	5.95243505859375	0		
-0.017361692428588867	0.0017129299640655518	0		0.5116692504882813	-2.38659375	0		-0.9953408203125	0.009824025154113769	0		-0.74820654296875	-2.219689208984375	0		1.17949462890625	-0.6883936157226562	0		3.0844501953125	-0.256891845703125	0		4.80377587890625	-0.09492584228515626	0		5.59183447265625	0.20253651428222658	0		-0.1998833465576172	5.9316923828125	0		
0.008788795471191406	8.686190247535706E-4	0		0.5425328979492188	-2.3855751953125	0		-0.9830390625	0.020296566009521483	0		-0.770356689453125	-2.220787841796875	0		1.1606263427734376	-0.6837863159179688	0		3.10125634765625	-0.281019287109375	0		4.79902490234375	-0.08798394775390625	0		5.592013671875	0.2013080291748047	0		-0.19895225524902344	5.93122412109375	0		
-0.0129965181350708	0.004702879905700684	0		0.508589111328125	-2.37264111328125	0		-0.9828787841796875	0.019948196411132813	0		-0.7443821411132813	-2.215516845703125	0		1.185728271484375	-0.68272998046875	0		3.1096533203125	-0.26196224975585936	0		4.79917236328125	-0.08901678466796875	0		5.5921953125	0.2001813201904297	0		-0.19809222412109376	5.93078271484375	0		
0.009102685928344727	-3.2985001802444455E-5	0		0.53039404296875	-2.38043212890625	0		-0.99081640625	0.012728657722473145	0		-0.7824584350585938	-2.215349609375	0		1.1607862548828125	-0.68494677734375	0		3.11160205078125	-0.2757543029785156	0		4.795236328125	-0.09590667724609375	0		5.58340087890625	0.2012751007080078	0		-0.06597370910644532	5.95356396484375	0		
-0.012692805290222167	0.0038650000095367433	0		0.53031396484375	-2.380888427734375	0		-0.9947232055664063	0.008473365783691407	0		-0.7204871826171875	-2.2135400390625	0		1.1797967529296876	-0.6907259521484375	0		3.090835693359375	-0.2681664733886719	0		4.79945703125	-0.09082569885253906	0		5.58844189453125	0.19126847839355468	0		-0.1975787353515625	5.93099609375	0		
0.009381415367126465	-8.177559971809387E-4	0		0.5401295166015625	-2.389449951171875	0		-0.9824384765625	0.019012619018554687	0		-0.7825806274414062	-2.2159912109375	0		1.157885498046875	-0.6898977661132812	0		3.107635986328125	-0.2910433654785156	0		4.78347119140625	-0.09939007568359375	0		5.58779931640625	0.2054252014160156	0		-0.1808154296875	5.93941162109375	0		
-0.012449662208557128	0.0031386079788208007	0		0.5260294799804688	-2.39164599609375	0		-0.97639697265625	0.013653743743896484	0		-0.7446443481445313	-2.216814453125	0		1.163040771484375	-0.68340869140625	0		3.1182421875	-0.2547776184082031	0		4.804572265625	-0.10040402221679688	0		5.5969248046875	0.20451751708984375	0		-0.18123292541503908	5.94008837890625	0		
5.490819811820983E-4	-0.0033693740367889405	0		0.5450722045898437	-2.383277587890625	0		-0.9781846923828125	0.022422735214233398	0		-0.7766266479492188	-2.210638671875	0		1.1630775146484376	-0.6838159790039062	0		3.0960009765625	-0.2770088806152344	0		4.7997626953125	-0.09299522399902344	0		5.5929111328125	0.195858642578125	0		-0.19587432861328125	5.92998681640625	0		
